<svg width="20" height="21" viewBox="0 0 20 21" fill="none" xmlns="http://www.w3.org/2000/svg">
<g id="Icon">
<path id="Vector" d="M14.9974 11.3316H10.8307V15.4983C10.8307 15.7193 10.7429 15.9313 10.5867 16.0876C10.4304 16.2438 10.2184 16.3316 9.9974 16.3316C9.77638 16.3316 9.56442 16.2438 9.40814 16.0876C9.25186 15.9313 9.16406 15.7193 9.16406 15.4983V11.3316H4.9974C4.77638 11.3316 4.56442 11.2438 4.40814 11.0876C4.25186 10.9313 4.16406 10.7193 4.16406 10.4983C4.16406 10.2773 4.25186 10.0653 4.40814 9.90906C4.56442 9.75278 4.77638 9.66498 4.9974 9.66498H9.16406V5.49831C9.16406 5.2773 9.25186 5.06534 9.40814 4.90906C9.56442 4.75278 9.77638 4.66498 9.9974 4.66498C10.2184 4.66498 10.4304 4.75278 10.5867 4.90906C10.7429 5.06534 10.8307 5.2773 10.8307 5.49831V9.66498H14.9974C15.2184 9.66498 15.4304 9.75278 15.5867 9.90906C15.7429 10.0653 15.8307 10.2773 15.8307 10.4983C15.8307 10.7193 15.7429 10.9313 15.5867 11.0876C15.4304 11.2438 15.2184 11.3316 14.9974 11.3316Z" fill="white"/>
</g>
</svg>
