<svg width="29" height="28" viewBox="0 0 29 28" fill="none" xmlns="http://www.w3.org/2000/svg">
<g id="Icon">
<g id="Vector">
<path d="M15.5766 12.8917L10.6182 7.93332L12.2807 6.29998L15.5766 9.59582L22.1974 3.00415L23.8307 4.63748L15.5766 12.8917ZM16.8307 26.25L8.66406 23.975V12.8333H10.9391L18.1724 15.5167C18.8141 15.75 19.334 16.1583 19.7322 16.7417C20.1304 17.325 20.33 17.9667 20.3307 18.6666H17.9974C17.1807 18.6666 16.5391 18.6375 16.0724 18.5792C15.6057 18.5208 15.1974 18.4333 14.8474 18.3166L12.5141 17.5583L12.1641 18.6666L14.0016 19.3375C14.546 19.5514 15.0418 19.6875 15.4891 19.7458C15.9363 19.8041 16.4613 19.8333 17.0641 19.8333H22.6641C23.9474 19.8333 24.8516 20.0422 25.3766 20.4598C25.9016 20.8775 26.1641 21.4464 26.1641 22.1666V23.3333L16.8307 26.25ZM1.66406 25.6666V12.8333H6.33073V25.6666H1.66406Z" fill="#8C8A8A"/>
<path d="M15.5766 12.8917L10.6182 7.93332L12.2807 6.29998L15.5766 9.59582L22.1974 3.00415L23.8307 4.63748L15.5766 12.8917ZM16.8307 26.25L8.66406 23.975V12.8333H10.9391L18.1724 15.5167C18.8141 15.75 19.334 16.1583 19.7322 16.7417C20.1304 17.325 20.33 17.9667 20.3307 18.6666H17.9974C17.1807 18.6666 16.5391 18.6375 16.0724 18.5792C15.6057 18.5208 15.1974 18.4333 14.8474 18.3166L12.5141 17.5583L12.1641 18.6666L14.0016 19.3375C14.546 19.5514 15.0418 19.6875 15.4891 19.7458C15.9363 19.8041 16.4613 19.8333 17.0641 19.8333H22.6641C23.9474 19.8333 24.8516 20.0422 25.3766 20.4598C25.9016 20.8775 26.1641 21.4464 26.1641 22.1666V23.3333L16.8307 26.25ZM1.66406 25.6666V12.8333H6.33073V25.6666H1.66406Z" fill="black" fill-opacity="0.2"/>
<path d="M15.5766 12.8917L10.6182 7.93332L12.2807 6.29998L15.5766 9.59582L22.1974 3.00415L23.8307 4.63748L15.5766 12.8917ZM16.8307 26.25L8.66406 23.975V12.8333H10.9391L18.1724 15.5167C18.8141 15.75 19.334 16.1583 19.7322 16.7417C20.1304 17.325 20.33 17.9667 20.3307 18.6666H17.9974C17.1807 18.6666 16.5391 18.6375 16.0724 18.5792C15.6057 18.5208 15.1974 18.4333 14.8474 18.3166L12.5141 17.5583L12.1641 18.6666L14.0016 19.3375C14.546 19.5514 15.0418 19.6875 15.4891 19.7458C15.9363 19.8041 16.4613 19.8333 17.0641 19.8333H22.6641C23.9474 19.8333 24.8516 20.0422 25.3766 20.4598C25.9016 20.8775 26.1641 21.4464 26.1641 22.1666V23.3333L16.8307 26.25ZM1.66406 25.6666V12.8333H6.33073V25.6666H1.66406Z" fill="black" fill-opacity="0.2"/>
</g>
</g>
</svg>
