<svg xmlns="http://www.w3.org/2000/svg" width="28" height="28" viewBox="0 0 28 28" fill="none">
  <path d="M15.0766 12.8919L10.1182 7.93356L11.7807 6.30023L15.0766 9.59606L21.6974 3.00439L23.3307 4.63773L15.0766 12.8919ZM16.3307 26.2502L8.16406 23.9752V12.8336H10.4391L17.6724 15.5169C18.3141 15.7502 18.834 16.1586 19.2322 16.7419C19.6304 17.3252 19.83 17.9669 19.8307 18.6669H17.4974C16.6807 18.6669 16.0391 18.6377 15.5724 18.5794C15.1057 18.5211 14.6974 18.4336 14.3474 18.3169L12.0141 17.5586L11.6641 18.6669L13.5016 19.3377C14.046 19.5516 14.5418 19.6877 14.9891 19.7461C15.4363 19.8044 15.9613 19.8336 16.5641 19.8336H22.1641C23.4474 19.8336 24.3516 20.0424 24.8766 20.4601C25.4016 20.8777 25.6641 21.4467 25.6641 22.1669V23.3336L16.3307 26.2502ZM1.16406 25.6669V12.8336H5.83073V25.6669H1.16406Z" fill="#3699FF"/>
</svg>