<svg width="28" height="28" viewBox="0 0 28 28" fill="none" xmlns="http://www.w3.org/2000/svg">
<g id="Icon" clip-path="url(#clip0_1587_25843)">
<g id="Vector">
<path d="M27.5642 0.171875C27.908 0.421875 28.0486 0.755208 27.9861 1.17188L23.9861 25.1719C23.934 25.474 23.7674 25.7083 23.4861 25.875C23.3403 25.9583 23.1788 26 23.0017 26C22.8872 26 22.7622 25.974 22.6267 25.9219L15.5486 23.0312L11.7674 27.6406C11.5799 27.8802 11.3247 28 11.0017 28C10.8663 28 10.7517 27.9792 10.658 27.9375C10.4601 27.8646 10.3012 27.7422 10.1814 27.5703C10.0616 27.3984 10.0017 27.2083 10.0017 27V21.5469L23.5017 5L6.79861 19.4531L0.626736 16.9219C0.241319 16.776 0.0329861 16.4896 0.00173611 16.0625C-0.0190972 15.6458 0.147569 15.3385 0.501736 15.1406L26.5017 0.140625C26.658 0.046875 26.8247 0 27.0017 0C27.2101 0 27.3976 0.0572917 27.5642 0.171875Z" fill="#8C8A8A"/>
<path d="M27.5642 0.171875C27.908 0.421875 28.0486 0.755208 27.9861 1.17188L23.9861 25.1719C23.934 25.474 23.7674 25.7083 23.4861 25.875C23.3403 25.9583 23.1788 26 23.0017 26C22.8872 26 22.7622 25.974 22.6267 25.9219L15.5486 23.0312L11.7674 27.6406C11.5799 27.8802 11.3247 28 11.0017 28C10.8663 28 10.7517 27.9792 10.658 27.9375C10.4601 27.8646 10.3012 27.7422 10.1814 27.5703C10.0616 27.3984 10.0017 27.2083 10.0017 27V21.5469L23.5017 5L6.79861 19.4531L0.626736 16.9219C0.241319 16.776 0.0329861 16.4896 0.00173611 16.0625C-0.0190972 15.6458 0.147569 15.3385 0.501736 15.1406L26.5017 0.140625C26.658 0.046875 26.8247 0 27.0017 0C27.2101 0 27.3976 0.0572917 27.5642 0.171875Z" fill="black" fill-opacity="0.2"/>
<path d="M27.5642 0.171875C27.908 0.421875 28.0486 0.755208 27.9861 1.17188L23.9861 25.1719C23.934 25.474 23.7674 25.7083 23.4861 25.875C23.3403 25.9583 23.1788 26 23.0017 26C22.8872 26 22.7622 25.974 22.6267 25.9219L15.5486 23.0312L11.7674 27.6406C11.5799 27.8802 11.3247 28 11.0017 28C10.8663 28 10.7517 27.9792 10.658 27.9375C10.4601 27.8646 10.3012 27.7422 10.1814 27.5703C10.0616 27.3984 10.0017 27.2083 10.0017 27V21.5469L23.5017 5L6.79861 19.4531L0.626736 16.9219C0.241319 16.776 0.0329861 16.4896 0.00173611 16.0625C-0.0190972 15.6458 0.147569 15.3385 0.501736 15.1406L26.5017 0.140625C26.658 0.046875 26.8247 0 27.0017 0C27.2101 0 27.3976 0.0572917 27.5642 0.171875Z" fill="black" fill-opacity="0.2"/>
</g>
</g>
<defs>
<clipPath id="clip0_1587_25843">
<rect width="28" height="28" fill="white"/>
</clipPath>
</defs>
</svg>
