<svg xmlns="http://www.w3.org/2000/svg" width="29" height="28" viewBox="0 0 29 28" fill="none">
  <g clip-path="url(#clip0_4450_46850)">
    <path d="M28.0642 0.171875C28.408 0.421875 28.5486 0.755208 28.4861 1.17188L24.4861 25.1719C24.434 25.474 24.2674 25.7083 23.9861 25.875C23.8403 25.9583 23.6788 26 23.5017 26C23.3872 26 23.2622 25.974 23.1267 25.9219L16.0486 23.0312L12.2674 27.6406C12.0799 27.8802 11.8247 28 11.5017 28C11.3663 28 11.2517 27.9792 11.158 27.9375C10.9601 27.8646 10.8012 27.7422 10.6814 27.5703C10.5616 27.3984 10.5017 27.2083 10.5017 27V21.5469L24.0017 5L7.29861 19.4531L1.12674 16.9219C0.741319 16.776 0.532986 16.4896 0.501736 16.0625C0.480903 15.6458 0.647569 15.3385 1.00174 15.1406L27.0017 0.140625C27.158 0.046875 27.3247 0 27.5017 0C27.7101 0 27.8976 0.0572917 28.0642 0.171875Z" fill="#3699FF"/>
  </g>
  <defs>
    <clipPath id="clip0_4450_46850">
      <rect width="28" height="28" fill="white" transform="translate(0.5)"/>
    </clipPath>
  </defs>
</svg>