<svg width="14" height="15" viewBox="0 0 14 15" fill="none" xmlns="http://www.w3.org/2000/svg">
<g id="Icon" clip-path="url(#clip0_580_10425)">
<path id="Vector" fill-rule="evenodd" clip-rule="evenodd" d="M12.25 4.4375V12.75C12.25 13.2141 12.0656 13.6592 11.7374 13.9874C11.4092 14.3156 10.9641 14.5 10.5 14.5H9.625V13.625H10.5C10.7321 13.625 10.9546 13.5328 11.1187 13.3687C11.2828 13.2046 11.375 12.9821 11.375 12.75V4.4375H9.625C9.2769 4.4375 8.94306 4.29922 8.69692 4.05308C8.45078 3.80694 8.3125 3.4731 8.3125 3.125V1.375H3.5C3.26794 1.375 3.04538 1.46719 2.88128 1.63128C2.71719 1.79538 2.625 2.01794 2.625 2.25V10.125H1.75V2.25C1.75 1.78587 1.93437 1.34075 2.26256 1.01256C2.59075 0.684374 3.03587 0.5 3.5 0.5L8.3125 0.5L12.25 4.4375ZM1.4 10.8688H0V14.3679H0.692125V13.1936H1.39475C1.64587 13.1936 1.85938 13.1437 2.03525 13.0422C2.21287 12.9399 2.3485 12.8016 2.44038 12.6275C2.53574 12.4448 2.58415 12.2412 2.58125 12.0351C2.58125 11.8164 2.53488 11.6186 2.443 11.4427C2.35162 11.2679 2.2119 11.123 2.0405 11.0254C1.8655 10.9204 1.65288 10.8688 1.4 10.8688ZM1.87687 12.0351C1.88003 12.1504 1.85447 12.2647 1.8025 12.3676C1.75587 12.4573 1.6833 12.5308 1.59425 12.5785C1.49239 12.6289 1.37972 12.6535 1.26612 12.6502H0.6895V11.42H1.267C1.45775 11.42 1.60738 11.4725 1.715 11.5784C1.82263 11.6851 1.87687 11.8374 1.87687 12.0351ZM2.94175 10.8688V14.3679H4.21925C4.57013 14.3679 4.8615 14.2979 5.0925 14.1605C5.32626 14.0206 5.5088 13.8093 5.61312 13.5576C5.72687 13.2951 5.78463 12.9784 5.78463 12.6091C5.78463 12.2416 5.72775 11.9284 5.61312 11.6685C5.51003 11.4198 5.32924 11.211 5.09775 11.0735C4.86675 10.937 4.57363 10.8688 4.21838 10.8688H2.94175ZM3.63387 11.4331H4.1265C4.3435 11.4331 4.52025 11.4769 4.65937 11.5661C4.80378 11.6606 4.91274 11.8003 4.96912 11.9634C5.03825 12.1392 5.07237 12.3589 5.07237 12.6222C5.07509 12.7968 5.05509 12.9709 5.01288 13.1403C4.9817 13.2738 4.92332 13.3995 4.84137 13.5095C4.76524 13.6076 4.66438 13.6837 4.54912 13.73C4.41408 13.7805 4.27065 13.8049 4.1265 13.8018H3.63387V11.4331ZM6.909 12.9757V14.3679H6.21775V10.8688H8.44725V11.4401H6.909V12.4175H8.31425V12.9757H6.909Z" fill="white"/>
</g>
<defs>
<clipPath id="clip0_580_10425">
<rect width="14" height="14" fill="white" transform="translate(0 0.5)"/>
</clipPath>
</defs>
</svg>
