<svg width="14" height="15" viewBox="0 0 14 15" fill="none" xmlns="http://www.w3.org/2000/svg">
<g id="uiw:file-excel" clip-path="url(#clip0_580_10419)">
<path id="Vector" d="M10.8769 1.452L10.0194 0.5H3.26653C2.77933 0.5 2.59102 0.8612 2.59102 1.1433V3.6843H3.53813V1.6571C3.53813 1.5493 3.62912 1.4583 3.73412 1.4583H8.56622C8.67262 1.4583 8.72583 1.4772 8.72583 1.5647V4.9387H12.1649C12.3 4.9387 12.3525 5.0087 12.3525 5.1109V13.3499C12.3525 13.5221 12.2825 13.548 12.1775 13.548H3.73412C3.68206 13.5467 3.63252 13.5253 3.59595 13.4882C3.55939 13.4511 3.53865 13.4013 3.53813 13.3492V12.596H2.59733V13.7825C2.58473 14.2025 2.80873 14.5 3.26653 14.5H12.6451C13.1351 14.5 13.3024 14.1451 13.3024 13.8217V4.1309L13.0574 3.8649L10.8762 1.4527L10.8769 1.452ZM9.68832 1.564L9.95922 1.8678L11.7764 3.8649L11.8765 3.986H10.0194C9.87943 3.986 9.79052 3.9629 9.75342 3.916C9.71632 3.8705 9.69462 3.797 9.68832 3.6969V1.564ZM8.92533 7.9669H12.1292V8.9007H8.92462V7.9669H8.92533ZM8.92533 6.1007H12.1292V7.0338H8.92462V6.1L8.92533 6.1007ZM8.92533 9.8338H12.1292V10.7676H8.92462V9.8338H8.92533ZM0.703125 4.4382V11.9051H8.02863V4.4382H0.703125ZM4.36622 8.781L3.91822 9.4656H4.36622V10.3H2.11433L3.74812 7.843L2.30053 5.6338H3.51013L4.36693 6.919L5.22302 5.6338H6.43192L4.98152 7.843L6.61742 10.3H5.36233L4.36622 8.781Z" fill="white"/>
</g>
<defs>
<clipPath id="clip0_580_10419">
<rect width="14" height="14" fill="white" transform="translate(0 0.5)"/>
</clipPath>
</defs>
</svg>
