<svg width="16" height="16" viewBox="0 0 16 16" fill="none" xmlns="http://www.w3.org/2000/svg">
<path d="M7.23921 5.71424H11.0487M4.9535 5.71424H5.7154M7.23921 7.99996H11.0487M4.9535 7.99996H5.7154M7.23921 10.2857H11.0487M4.9535 10.2857H5.7154M12.5725 11.8095V4.19044C12.5725 3.7863 12.412 3.39871 12.1262 3.11294C11.8405 2.82717 11.4529 2.66663 11.0487 2.66663H4.9535C4.54936 2.66663 4.16177 2.82717 3.876 3.11294C3.59023 3.39871 3.42969 3.7863 3.42969 4.19044V11.8095C3.42969 12.2136 3.59023 12.6012 3.876 12.887C4.16177 13.1727 4.54936 13.3333 4.9535 13.3333H11.0487C11.4529 13.3333 11.8405 13.1727 12.1262 12.887C12.412 12.6012 12.5725 12.2136 12.5725 11.8095Z" stroke="#3699FF" stroke-linecap="round" stroke-linejoin="round"/>
</svg>
