<svg width="29" height="28" viewBox="0 0 29 28" fill="none" xmlns="http://www.w3.org/2000/svg">
<path d="M20.6631 12.6H12.5431C11.7703 12.6 11.7031 13.2258 11.7031 14C11.7031 14.7742 11.7703 15.4 12.5431 15.4H20.6631C21.4359 15.4 21.5031 14.7742 21.5031 14C21.5031 13.2258 21.4359 12.6 20.6631 12.6ZM23.4631 19.6H12.5431C11.7703 19.6 11.7031 20.2258 11.7031 21C11.7031 21.7742 11.7703 22.4 12.5431 22.4H23.4631C24.2359 22.4 24.3031 21.7742 24.3031 21C24.3031 20.2258 24.2359 19.6 23.4631 19.6ZM12.5431 8.39998H23.4631C24.2359 8.39998 24.3031 7.77418 24.3031 6.99998C24.3031 6.22578 24.2359 5.59998 23.4631 5.59998H12.5431C11.7703 5.59998 11.7031 6.22578 11.7031 6.99998C11.7031 7.77418 11.7703 8.39998 12.5431 8.39998ZM8.06312 12.6H5.54312C4.77032 12.6 4.70312 13.2258 4.70312 14C4.70312 14.7742 4.77032 15.4 5.54312 15.4H8.06312C8.83592 15.4 8.90312 14.7742 8.90312 14C8.90312 13.2258 8.83592 12.6 8.06312 12.6ZM8.06312 19.6H5.54312C4.77032 19.6 4.70312 20.2258 4.70312 21C4.70312 21.7742 4.77032 22.4 5.54312 22.4H8.06312C8.83592 22.4 8.90312 21.7742 8.90312 21C8.90312 20.2258 8.83592 19.6 8.06312 19.6ZM8.06312 5.59998H5.54312C4.77032 5.59998 4.70312 6.22578 4.70312 6.99998C4.70312 7.77418 4.77032 8.39998 5.54312 8.39998H8.06312C8.83592 8.39998 8.90312 7.77418 8.90312 6.99998C8.90312 6.22578 8.83592 5.59998 8.06312 5.59998Z" fill="#3699FF"/>
</svg>
