<svg xmlns="http://www.w3.org/2000/svg" width="28" height="28" viewBox="0 0 28 28" fill="none">
  <path d="M20.1631 12.6H12.0431C11.2703 12.6 11.2031 13.2258 11.2031 14C11.2031 14.7742 11.2703 15.4 12.0431 15.4H20.1631C20.9359 15.4 21.0031 14.7742 21.0031 14C21.0031 13.2258 20.9359 12.6 20.1631 12.6ZM22.9631 19.6H12.0431C11.2703 19.6 11.2031 20.2258 11.2031 21C11.2031 21.7742 11.2703 22.4 12.0431 22.4H22.9631C23.7359 22.4 23.8031 21.7742 23.8031 21C23.8031 20.2258 23.7359 19.6 22.9631 19.6ZM12.0431 8.39998H22.9631C23.7359 8.39998 23.8031 7.77418 23.8031 6.99998C23.8031 6.22578 23.7359 5.59998 22.9631 5.59998H12.0431C11.2703 5.59998 11.2031 6.22578 11.2031 6.99998C11.2031 7.77418 11.2703 8.39998 12.0431 8.39998ZM7.56312 12.6H5.04312C4.27032 12.6 4.20312 13.2258 4.20312 14C4.20312 14.7742 4.27032 15.4 5.04312 15.4H7.56312C8.33592 15.4 8.40312 14.7742 8.40312 14C8.40312 13.2258 8.33592 12.6 7.56312 12.6ZM7.56312 19.6H5.04312C4.27032 19.6 4.20312 20.2258 4.20312 21C4.20312 21.7742 4.27032 22.4 5.04312 22.4H7.56312C8.33592 22.4 8.40312 21.7742 8.40312 21C8.40312 20.2258 8.33592 19.6 7.56312 19.6ZM7.56312 5.59998H5.04312C4.27032 5.59998 4.20312 6.22578 4.20312 6.99998C4.20312 7.77418 4.27032 8.39998 5.04312 8.39998H7.56312C8.33592 8.39998 8.40312 7.77418 8.40312 6.99998C8.40312 6.22578 8.33592 5.59998 7.56312 5.59998Z" fill="#8C8A8A"/>
  <path d="M20.1631 12.6H12.0431C11.2703 12.6 11.2031 13.2258 11.2031 14C11.2031 14.7742 11.2703 15.4 12.0431 15.4H20.1631C20.9359 15.4 21.0031 14.7742 21.0031 14C21.0031 13.2258 20.9359 12.6 20.1631 12.6ZM22.9631 19.6H12.0431C11.2703 19.6 11.2031 20.2258 11.2031 21C11.2031 21.7742 11.2703 22.4 12.0431 22.4H22.9631C23.7359 22.4 23.8031 21.7742 23.8031 21C23.8031 20.2258 23.7359 19.6 22.9631 19.6ZM12.0431 8.39998H22.9631C23.7359 8.39998 23.8031 7.77418 23.8031 6.99998C23.8031 6.22578 23.7359 5.59998 22.9631 5.59998H12.0431C11.2703 5.59998 11.2031 6.22578 11.2031 6.99998C11.2031 7.77418 11.2703 8.39998 12.0431 8.39998ZM7.56312 12.6H5.04312C4.27032 12.6 4.20312 13.2258 4.20312 14C4.20312 14.7742 4.27032 15.4 5.04312 15.4H7.56312C8.33592 15.4 8.40312 14.7742 8.40312 14C8.40312 13.2258 8.33592 12.6 7.56312 12.6ZM7.56312 19.6H5.04312C4.27032 19.6 4.20312 20.2258 4.20312 21C4.20312 21.7742 4.27032 22.4 5.04312 22.4H7.56312C8.33592 22.4 8.40312 21.7742 8.40312 21C8.40312 20.2258 8.33592 19.6 7.56312 19.6ZM7.56312 5.59998H5.04312C4.27032 5.59998 4.20312 6.22578 4.20312 6.99998C4.20312 7.77418 4.27032 8.39998 5.04312 8.39998H7.56312C8.33592 8.39998 8.40312 7.77418 8.40312 6.99998C8.40312 6.22578 8.33592 5.59998 7.56312 5.59998Z" fill="black" fill-opacity="0.2"/>
  <path d="M20.1631 12.6H12.0431C11.2703 12.6 11.2031 13.2258 11.2031 14C11.2031 14.7742 11.2703 15.4 12.0431 15.4H20.1631C20.9359 15.4 21.0031 14.7742 21.0031 14C21.0031 13.2258 20.9359 12.6 20.1631 12.6ZM22.9631 19.6H12.0431C11.2703 19.6 11.2031 20.2258 11.2031 21C11.2031 21.7742 11.2703 22.4 12.0431 22.4H22.9631C23.7359 22.4 23.8031 21.7742 23.8031 21C23.8031 20.2258 23.7359 19.6 22.9631 19.6ZM12.0431 8.39998H22.9631C23.7359 8.39998 23.8031 7.77418 23.8031 6.99998C23.8031 6.22578 23.7359 5.59998 22.9631 5.59998H12.0431C11.2703 5.59998 11.2031 6.22578 11.2031 6.99998C11.2031 7.77418 11.2703 8.39998 12.0431 8.39998ZM7.56312 12.6H5.04312C4.27032 12.6 4.20312 13.2258 4.20312 14C4.20312 14.7742 4.27032 15.4 5.04312 15.4H7.56312C8.33592 15.4 8.40312 14.7742 8.40312 14C8.40312 13.2258 8.33592 12.6 7.56312 12.6ZM7.56312 19.6H5.04312C4.27032 19.6 4.20312 20.2258 4.20312 21C4.20312 21.7742 4.27032 22.4 5.04312 22.4H7.56312C8.33592 22.4 8.40312 21.7742 8.40312 21C8.40312 20.2258 8.33592 19.6 7.56312 19.6ZM7.56312 5.59998H5.04312C4.27032 5.59998 4.20312 6.22578 4.20312 6.99998C4.20312 7.77418 4.27032 8.39998 5.04312 8.39998H7.56312C8.33592 8.39998 8.40312 7.77418 8.40312 6.99998C8.40312 6.22578 8.33592 5.59998 7.56312 5.59998Z" fill="black" fill-opacity="0.2"/>
</svg>