<svg width="13" height="12" viewBox="0 0 13 12" fill="none" xmlns="http://www.w3.org/2000/svg">
<path d="M2.00781 6.5H5.00781C5.28281 6.5 5.50781 6.275 5.50781 6V2C5.50781 1.725 5.28281 1.5 5.00781 1.5H2.00781C1.73281 1.5 1.50781 1.725 1.50781 2V6C1.50781 6.275 1.73281 6.5 2.00781 6.5ZM2.00781 10.5H5.00781C5.28281 10.5 5.50781 10.275 5.50781 10V8C5.50781 7.725 5.28281 7.5 5.00781 7.5H2.00781C1.73281 7.5 1.50781 7.725 1.50781 8V10C1.50781 10.275 1.73281 10.5 2.00781 10.5ZM7.00781 10.5H10.0078C10.2828 10.5 10.5078 10.275 10.5078 10V6C10.5078 5.725 10.2828 5.5 10.0078 5.5H7.00781C6.73281 5.5 6.50781 5.725 6.50781 6V10C6.50781 10.275 6.73281 10.5 7.00781 10.5ZM6.50781 2V4C6.50781 4.275 6.73281 4.5 7.00781 4.5H10.0078C10.2828 4.5 10.5078 4.275 10.5078 4V2C10.5078 1.725 10.2828 1.5 10.0078 1.5H7.00781C6.73281 1.5 6.50781 1.725 6.50781 2Z" fill="currentColor"/>
</svg>
