<svg width="10" height="12" viewBox="0 0 10 12" fill="none" xmlns="http://www.w3.org/2000/svg">
<g clip-path="url(#clip0_1176_5340)">
<path d="M5.25781 3.1875V0H0.570312C0.258594 0 0.0078125 0.250781 0.0078125 0.5625V11.4375C0.0078125 11.7492 0.258594 12 0.570312 12H8.44531C8.75703 12 9.00781 11.7492 9.00781 11.4375V3.75H5.82031C5.51094 3.75 5.25781 3.49688 5.25781 3.1875ZM1.50781 1.6875C1.50781 1.58391 1.59172 1.5 1.69531 1.5H3.57031C3.67391 1.5 3.75781 1.58391 3.75781 1.6875V2.0625C3.75781 2.16609 3.67391 2.25 3.57031 2.25H1.69531C1.59172 2.25 1.50781 2.16609 1.50781 2.0625V1.6875ZM1.50781 3.1875C1.50781 3.08391 1.59172 3 1.69531 3H3.57031C3.67391 3 3.75781 3.08391 3.75781 3.1875V3.5625C3.75781 3.66609 3.67391 3.75 3.57031 3.75H1.69531C1.59172 3.75 1.50781 3.66609 1.50781 3.5625V3.1875ZM6.0268 9H7.13281C7.34 9 7.50781 9.16781 7.50781 9.375C7.50781 9.58219 7.34 9.75 7.13281 9.75H6.0268C5.64125 9.75 5.29391 9.53578 5.12117 9.19078C5.05203 9.05203 4.93156 9.03797 4.88281 9.03797C4.83406 9.03797 4.71359 9.0518 4.64797 9.18305L4.4682 9.54258C4.43708 9.60487 4.3892 9.65725 4.32996 9.69385C4.27072 9.73045 4.20245 9.74981 4.13281 9.74977C4.12391 9.74977 4.11523 9.7493 4.10609 9.74859C3.95492 9.73805 3.82484 9.63727 3.77727 9.49336L3.38281 8.3107L3.13414 9.05789C2.99609 9.4718 2.60961 9.75 2.1732 9.75H1.88281C1.67562 9.75 1.50781 9.58219 1.50781 9.375C1.50781 9.16781 1.67562 9 1.88281 9H2.1732C2.28641 9 2.38672 8.92781 2.42258 8.82047L2.84891 7.53984C2.92625 7.30992 3.14047 7.15523 3.38281 7.15523C3.62516 7.15523 3.83938 7.30969 3.91648 7.53984L4.2418 8.51578C4.70516 8.13633 5.50859 8.28844 5.78867 8.84766C5.83602 8.94281 5.92836 9 6.0268 9ZM8.84375 2.46094L6.54922 0.164062C6.44375 0.0585938 6.30078 0 6.15078 0H6.00781V3H9.00781V2.85703C9.00781 2.70938 8.94922 2.56641 8.84375 2.46094Z" fill="currentColor"/>
</g>
<defs>
<clipPath id="clip0_1176_5340">
<rect width="9" height="12" fill="white" transform="translate(0.0078125)"/>
</clipPath>
</defs>
</svg>
