<svg width="20" height="20" viewBox="0 0 20 20" fill="none" xmlns="http://www.w3.org/2000/svg">
<path d="M4.99992 1.66699C4.07492 1.66699 3.33325 2.40866 3.33325 3.33366V16.667C3.33325 17.109 3.50885 17.5329 3.82141 17.8455C4.13397 18.1581 4.55789 18.3337 4.99992 18.3337H8.33325V16.742L10.0749 15.0003H4.99992V13.3337H11.7416L13.4083 11.667H4.99992V10.0003H15.0749L16.6666 8.40866V6.66699L11.6666 1.66699H4.99992ZM10.8333 2.91699L15.4166 7.50033H10.8333V2.91699ZM16.7916 10.8337C16.7299 10.8323 16.6686 10.8434 16.6113 10.8663C16.554 10.8892 16.502 10.9235 16.4583 10.967L15.6083 11.817L17.3499 13.5503L18.1999 12.7087C18.3749 12.5253 18.3749 12.2253 18.1999 12.0503L17.1166 10.967C17.074 10.9243 17.0233 10.8905 16.9675 10.8676C16.9117 10.8447 16.8519 10.8331 16.7916 10.8337ZM15.1166 12.3087L9.99992 17.4337V19.167H11.7333L16.8583 14.042L15.1166 12.3087Z" fill="currentColor"/>
</svg>
