<svg width="13" height="12" viewBox="0 0 13 12" fill="none" xmlns="http://www.w3.org/2000/svg">
<path d="M3.00781 1C2.45281 1 2.00781 1.445 2.00781 2V10C2.00781 10.2652 2.11317 10.5196 2.30071 10.7071C2.48824 10.8946 2.7426 11 3.00781 11H5.00781V10.045L6.05281 9H3.00781V8H7.05281L8.05281 7H3.00781V6H9.05281L10.0078 5.045V4L7.00781 1H3.00781ZM6.50781 1.75L9.25781 4.5H6.50781V1.75ZM10.0828 6.5C10.0458 6.49919 10.009 6.50586 9.97465 6.5196C9.94029 6.53335 9.90905 6.55389 9.88281 6.58L9.37281 7.09L10.4178 8.13L10.9278 7.625C11.0328 7.515 11.0328 7.335 10.9278 7.23L10.2778 6.58C10.2523 6.55436 10.2219 6.53408 10.1884 6.52034C10.1549 6.50661 10.119 6.49969 10.0828 6.5ZM9.07781 7.385L6.00781 10.46V11.5H7.04781L10.1228 8.425L9.07781 7.385Z" fill="#3699FF"/>
</svg>
