<svg width="13" height="12" viewBox="0 0 13 12" fill="none" xmlns="http://www.w3.org/2000/svg">
<path fill-rule="evenodd" clip-rule="evenodd" d="M1.63281 3.5C1.63281 3.40054 1.67232 3.30516 1.74265 3.23483C1.81297 3.16451 1.90836 3.125 2.00781 3.125H10.0078C10.1073 3.125 10.2027 3.16451 10.273 3.23483C10.3433 3.30516 10.3828 3.40054 10.3828 3.5C10.3828 3.59946 10.3433 3.69484 10.273 3.76517C10.2027 3.83549 10.1073 3.875 10.0078 3.875H2.00781C1.90836 3.875 1.81297 3.83549 1.74265 3.76517C1.67232 3.69484 1.63281 3.59946 1.63281 3.5ZM1.63281 6C1.63281 5.90054 1.67232 5.80516 1.74265 5.73484C1.81297 5.66451 1.90836 5.625 2.00781 5.625H7.50781C7.60727 5.625 7.70265 5.66451 7.77298 5.73484C7.8433 5.80516 7.88281 5.90054 7.88281 6C7.88281 6.09946 7.8433 6.19484 7.77298 6.26516C7.70265 6.33549 7.60727 6.375 7.50781 6.375H2.00781C1.90836 6.375 1.81297 6.33549 1.74265 6.26516C1.67232 6.19484 1.63281 6.09946 1.63281 6ZM1.63281 8.5C1.63281 8.40054 1.67232 8.30516 1.74265 8.23483C1.81297 8.16451 1.90836 8.125 2.00781 8.125H4.50781C4.60727 8.125 4.70265 8.16451 4.77298 8.23483C4.8433 8.30516 4.88281 8.40054 4.88281 8.5C4.88281 8.59946 4.8433 8.69484 4.77298 8.76517C4.70265 8.83549 4.60727 8.875 4.50781 8.875H2.00781C1.90836 8.875 1.81297 8.83549 1.74265 8.76517C1.67232 8.69484 1.63281 8.59946 1.63281 8.5Z" fill="currentColor" />
</svg>
