<svg width="13" height="12" viewBox="0 0 13 12" fill="none" xmlns="http://www.w3.org/2000/svg">
<g clip-path="url(#clip0_1176_5344)">
<path d="M11.8211 0.0736607C11.9684 0.180804 12.0286 0.323661 12.0019 0.502232L10.2876 10.7879C10.2653 10.9174 10.1938 11.0179 10.0733 11.0893C10.0108 11.125 9.94159 11.1429 9.8657 11.1429C9.81659 11.1429 9.76302 11.1317 9.70498 11.1094L6.6715 9.87054L5.05097 11.846C4.97061 11.9487 4.86124 12 4.72284 12C4.66481 12 4.6157 11.9911 4.57552 11.9732C4.4907 11.942 4.42262 11.8895 4.37128 11.8158C4.31994 11.7422 4.29427 11.6607 4.29427 11.5714V9.23438L10.08 2.14286L2.9215 8.33705L0.276414 7.25223C0.111235 7.18973 0.0219494 7.06696 0.00855655 6.88393C-0.000372024 6.70536 0.0710566 6.57366 0.222842 6.48884L11.3657 0.0602679C11.4327 0.0200893 11.5041 0 11.58 0C11.6693 0 11.7496 0.0245536 11.8211 0.0736607Z" fill="#403F3F"/>
</g>
<defs>
<clipPath id="clip0_1176_5344">
<rect width="12" height="12" fill="white" transform="translate(0.0078125)"/>
</clipPath>
</defs>
</svg>
