<svg width="13" height="12" viewBox="0 0 13 12" fill="none" xmlns="http://www.w3.org/2000/svg">
<g clip-path="url(#clip0_1176_5348)">
<path d="M1.50781 2V8H10.5078V2H1.50781ZM1.50781 1H10.5078C10.773 1 11.0274 1.10536 11.2149 1.29289C11.4025 1.48043 11.5078 1.73478 11.5078 2V8C11.5078 8.265 11.4028 8.52 11.2128 8.705C11.0278 8.895 10.7728 9 10.5078 9H7.00781V10H8.00781V11H4.00781V10H5.00781V9H1.50781C1.24281 9 0.987813 8.895 0.802813 8.705C0.612813 8.52 0.507812 8.265 0.507812 8V2C0.507812 1.445 0.952812 1 1.50781 1ZM5.42781 4.465C5.58281 4.315 5.79281 4.225 6.00781 4.225C6.22281 4.23 6.43281 4.315 6.58781 4.47C6.73781 4.62 6.82781 4.83 6.82781 5.045C6.82781 5.265 6.73781 5.47 6.58781 5.625C6.43281 5.78 6.22281 5.865 6.00781 5.865C5.79281 5.865 5.58281 5.775 5.42781 5.625C5.27781 5.47 5.18781 5.265 5.18781 5.045C5.18781 4.83 5.27781 4.62 5.42781 4.465ZM5.04281 6C5.16778 6.12981 5.31766 6.23308 5.48347 6.30361C5.64928 6.37415 5.82762 6.4105 6.00781 6.4105C6.188 6.4105 6.36634 6.37415 6.53215 6.30361C6.69797 6.23308 6.84784 6.12981 6.97281 6C7.22781 5.75 7.37281 5.405 7.37281 5.045C7.37281 4.685 7.22781 4.335 6.97281 4.08C6.71781 3.825 6.36781 3.68 6.00781 3.68C5.64781 3.68 5.29781 3.825 5.04281 4.08C4.78781 4.335 4.64281 4.685 4.64281 5.045C4.64281 5.405 4.78781 5.75 5.04281 6ZM3.00781 5.045C3.24475 4.44234 3.65763 3.92497 4.1927 3.56023C4.72777 3.19549 5.36025 3.00028 6.00781 3C7.37281 3 8.53781 3.85 9.00781 5.045C8.77256 5.64881 8.3601 6.1673 7.82465 6.5323C7.2892 6.8973 6.65583 7.09172 6.00781 7.09C4.64281 7.09 3.47781 6.25 3.00781 5.045Z" fill="#403F3F"/>
</g>
<defs>
<clipPath id="clip0_1176_5348">
<rect width="12" height="12" fill="white" transform="translate(0.0078125)"/>
</clipPath>
</defs>
</svg>
