<svg xmlns="http://www.w3.org/2000/svg" width="28" height="28" viewBox="0 0 28 28" fill="none">
  <path d="M2.33594 25.6667V4.66671C2.33594 4.02504 2.5646 3.47554 3.02194 3.01821C3.47927 2.56088 4.02838 2.3326 4.66927 2.33338H23.3359C23.9776 2.33338 24.5271 2.56204 24.9844 3.01938C25.4418 3.47671 25.67 4.02582 25.6693 4.66671V18.6667C25.6693 19.3084 25.4406 19.8579 24.9833 20.3152C24.5259 20.7725 23.9768 21.0008 23.3359 21H7.0026L2.33594 25.6667ZM10.5901 16.625L14.0026 14.5542L17.4151 16.625L16.5109 12.7459L19.5443 10.1209L15.5484 9.80004L14.0026 6.12504L12.4568 9.80004L8.46094 10.1209L11.4943 12.7459L10.5901 16.625Z" fill="#3699FF"/>
</svg>