<svg width="24" height="20" viewBox="0 0 24 20" fill="none" xmlns="http://www.w3.org/2000/svg">
<path d="M20.987 13.3333C20.9913 13.2444 20.9781 13.1554 20.948 13.07L18.948 8.07C18.882 7.90399 18.7548 7.75956 18.5846 7.65723C18.4144 7.5549 18.2099 7.49988 18 7.5H14V9.16667H17.279L18.946 13.3333H5.054L6.721 9.16667H10V7.5H6C5.79013 7.49988 5.58556 7.5549 5.41537 7.65723C5.24518 7.75956 5.11803 7.90399 5.052 8.07L3.052 13.07C3.02186 13.1554 3.00869 13.2444 3.013 13.3333C3 13.3333 3 17.5 3 17.5C3 17.721 3.10536 17.933 3.29289 18.0893C3.48043 18.2455 3.73478 18.3333 4 18.3333H20C20.2652 18.3333 20.5196 18.2455 20.7071 18.0893C20.8946 17.933 21 17.721 21 17.5C21 17.5 21 13.3333 20.987 13.3333ZM16 6.58667C16.259 6.58667 16.518 6.5075 16.707 6.35083C16.8945 6.19456 16.9998 5.98264 16.9998 5.76167C16.9998 5.5407 16.8945 5.32877 16.707 5.1725L12 1.25L7.293 5.1725C7.10553 5.32877 7.00021 5.5407 7.00021 5.76167C7.00021 5.98264 7.10553 6.19456 7.293 6.35083C7.482 6.50833 7.741 6.58667 8 6.58667C8.259 6.58667 8.518 6.50833 8.707 6.35083L11 4.44V10C11 10.221 11.1054 10.433 11.2929 10.5893C11.4804 10.7455 11.7348 10.8333 12 10.8333C12.2652 10.8333 12.5196 10.7455 12.7071 10.5893C12.8946 10.433 13 10.221 13 10V4.44L15.293 6.35083C15.4819 6.50431 15.7362 6.58911 16 6.58667Z" fill="#8C8A8A"/>
<path d="M20.987 13.3333C20.9913 13.2444 20.9781 13.1554 20.948 13.07L18.948 8.07C18.882 7.90399 18.7548 7.75956 18.5846 7.65723C18.4144 7.5549 18.2099 7.49988 18 7.5H14V9.16667H17.279L18.946 13.3333H5.054L6.721 9.16667H10V7.5H6C5.79013 7.49988 5.58556 7.5549 5.41537 7.65723C5.24518 7.75956 5.11803 7.90399 5.052 8.07L3.052 13.07C3.02186 13.1554 3.00869 13.2444 3.013 13.3333C3 13.3333 3 17.5 3 17.5C3 17.721 3.10536 17.933 3.29289 18.0893C3.48043 18.2455 3.73478 18.3333 4 18.3333H20C20.2652 18.3333 20.5196 18.2455 20.7071 18.0893C20.8946 17.933 21 17.721 21 17.5C21 17.5 21 13.3333 20.987 13.3333ZM16 6.58667C16.259 6.58667 16.518 6.5075 16.707 6.35083C16.8945 6.19456 16.9998 5.98264 16.9998 5.76167C16.9998 5.5407 16.8945 5.32877 16.707 5.1725L12 1.25L7.293 5.1725C7.10553 5.32877 7.00021 5.5407 7.00021 5.76167C7.00021 5.98264 7.10553 6.19456 7.293 6.35083C7.482 6.50833 7.741 6.58667 8 6.58667C8.259 6.58667 8.518 6.50833 8.707 6.35083L11 4.44V10C11 10.221 11.1054 10.433 11.2929 10.5893C11.4804 10.7455 11.7348 10.8333 12 10.8333C12.2652 10.8333 12.5196 10.7455 12.7071 10.5893C12.8946 10.433 13 10.221 13 10V4.44L15.293 6.35083C15.4819 6.50431 15.7362 6.58911 16 6.58667Z" fill="black" fill-opacity="0.2"/>
<path d="M20.987 13.3333C20.9913 13.2444 20.9781 13.1554 20.948 13.07L18.948 8.07C18.882 7.90399 18.7548 7.75956 18.5846 7.65723C18.4144 7.5549 18.2099 7.49988 18 7.5H14V9.16667H17.279L18.946 13.3333H5.054L6.721 9.16667H10V7.5H6C5.79013 7.49988 5.58556 7.5549 5.41537 7.65723C5.24518 7.75956 5.11803 7.90399 5.052 8.07L3.052 13.07C3.02186 13.1554 3.00869 13.2444 3.013 13.3333C3 13.3333 3 17.5 3 17.5C3 17.721 3.10536 17.933 3.29289 18.0893C3.48043 18.2455 3.73478 18.3333 4 18.3333H20C20.2652 18.3333 20.5196 18.2455 20.7071 18.0893C20.8946 17.933 21 17.721 21 17.5C21 17.5 21 13.3333 20.987 13.3333ZM16 6.58667C16.259 6.58667 16.518 6.5075 16.707 6.35083C16.8945 6.19456 16.9998 5.98264 16.9998 5.76167C16.9998 5.5407 16.8945 5.32877 16.707 5.1725L12 1.25L7.293 5.1725C7.10553 5.32877 7.00021 5.5407 7.00021 5.76167C7.00021 5.98264 7.10553 6.19456 7.293 6.35083C7.482 6.50833 7.741 6.58667 8 6.58667C8.259 6.58667 8.518 6.50833 8.707 6.35083L11 4.44V10C11 10.221 11.1054 10.433 11.2929 10.5893C11.4804 10.7455 11.7348 10.8333 12 10.8333C12.2652 10.8333 12.5196 10.7455 12.7071 10.5893C12.8946 10.433 13 10.221 13 10V4.44L15.293 6.35083C15.4819 6.50431 15.7362 6.58911 16 6.58667Z" fill="black" fill-opacity="0.2"/>
</svg>
