<svg width="14" height="17" viewBox="0 0 14 17" fill="none" xmlns="http://www.w3.org/2000/svg">
<path fill-rule="evenodd" clip-rule="evenodd" d="M13.2321 5.19203V14.171C13.2321 14.6723 13.033 15.1531 12.6785 15.5076C12.324 15.8621 11.8432 16.0613 11.3418 16.0613H10.3967V15.1161H11.3418C11.5925 15.1161 11.8329 15.0165 12.0101 14.8393C12.1874 14.662 12.287 14.4216 12.287 14.171V5.19203H10.3967C10.0207 5.19203 9.66006 5.04266 9.39418 4.77678C9.12831 4.51091 8.97894 4.1503 8.97894 3.7743V1.88399H3.78061C3.52994 1.88399 3.28953 1.98357 3.11228 2.16082C2.93503 2.33807 2.83546 2.57848 2.83546 2.82915V11.3355H1.8903V2.82915C1.8903 2.32781 2.08946 1.847 2.44396 1.4925C2.79846 1.138 3.27927 0.938843 3.78061 0.938843L8.97894 0.938843L13.2321 5.19203ZM1.51224 12.1389H0V15.9186H0.747615V14.6502H1.50657C1.77783 14.6502 2.00845 14.5963 2.19842 14.4866C2.39029 14.3761 2.53679 14.2267 2.63603 14.0386C2.73904 13.8413 2.79133 13.6214 2.7882 13.3988C2.7882 13.1625 2.7381 12.9489 2.63886 12.7589C2.54015 12.5701 2.38924 12.4136 2.20409 12.3081C2.01506 12.1947 1.78539 12.1389 1.51224 12.1389ZM2.02735 13.3988C2.03076 13.5233 2.00315 13.6467 1.94701 13.7579C1.89665 13.8548 1.81825 13.9341 1.72207 13.9857C1.61204 14.0402 1.49034 14.0668 1.36763 14.0632H0.74478V12.7343H1.36858C1.57462 12.7343 1.73624 12.791 1.8525 12.9054C1.96875 13.0207 2.02735 13.1852 2.02735 13.3988ZM3.1776 12.1389V15.9186H4.55752C4.93653 15.9186 5.25126 15.8429 5.50078 15.6946C5.75329 15.5435 5.95046 15.3152 6.06315 15.0433C6.18602 14.7598 6.2484 14.4177 6.2484 14.0188C6.2484 13.6218 6.18696 13.2835 6.06315 13.0028C5.95179 12.7341 5.75651 12.5086 5.50645 12.3601C5.25693 12.2126 4.94031 12.1389 4.55658 12.1389H3.1776ZM3.92522 12.7485H4.45734C4.69173 12.7485 4.88265 12.7958 5.03293 12.8922C5.18892 12.9942 5.30661 13.1451 5.36752 13.3213C5.44218 13.5113 5.47904 13.7485 5.47904 14.033C5.48198 14.2215 5.46037 14.4096 5.41477 14.5925C5.3811 14.7368 5.31804 14.8726 5.22952 14.9914C5.14729 15.0974 5.03834 15.1796 4.91384 15.2295C4.76797 15.2841 4.61305 15.3104 4.45734 15.307H3.92522V12.7485ZM7.46292 14.4148V15.9186H6.71625V12.1389H9.1245V12.7561H7.46292V13.8118H8.98083V14.4148H7.46292Z" fill="#3699FF"/>
</svg>
